<?xml version="1.0" encoding="utf-8"?>
<!-- Generator: Adobe Illustrator 16.0.0, SVG Export Plug-In . SVG Version: 6.00 Build 0)  -->
<!DOCTYPE svg PUBLIC "-//W3C//DTD SVG 1.1//EN" "http://www.w3.org/Graphics/SVG/1.1/DTD/svg11.dtd">
<svg version="1.1" xmlns="http://www.w3.org/2000/svg" xmlns:xlink="http://www.w3.org/1999/xlink" x="0px" y="0px" width="500px"
	 height="500px" viewBox="0 0 500 500" enable-background="new 0 0 500 500" xml:space="preserve">
<g id="borboleta">
	<g id="borboleta_1_">
		<g id="corpo">
			<polygon fill="#0A0A0A" points="279.874,82.335 295.033,149.261 299.608,149.261 			"/>
			<polygon fill="#0A0A0A" points="298.45,150.195 303.898,152.194 370.525,122.026 			"/>
			<polygon fill="#63584F" points="301.038,146.76 289.741,148.618 291.028,167.354 307.617,157.057 			"/>
			<polygon fill="#3A2B28" points="233.399,268.027 256.992,279.754 236.975,287.477 			"/>
			<polygon fill="#23110E" points="281.304,202.817 256.992,279.754 233.399,268.027 			"/>
			<polygon fill="#3A2B28" points="271.865,198.814 233.399,268.027 281.304,202.817 			"/>
			<polygon fill="#3A2B28" points="301.038,146.76 285.021,157.057 271.865,198.814 276.845,200.926 			"/>
			<polygon fill="#23110E" points="281.304,202.817 276.845,200.926 301.038,146.76 302.47,165.923 			"/>
		</g>
		<g id="asa_x5F_2">
			<g>
				<polygon fill="#483C38" points="178.057,28.064 181.06,186.371 275.015,182.51 278.446,163.204 232.971,75.256 				"/>
				<polygon fill="#483C38" points="178.057,28.064 188.354,110.864 181.06,186.371 				"/>
				<polygon fill="#5C9E91" points="178.057,28.064 228.251,74.827 188.354,110.864 				"/>
				<polygon fill="#72C9BB" points="278.446,163.204 188.354,110.864 228.251,74.827 				"/>
				<polygon fill="#555047" points="181.06,186.371 188.354,110.864 278.446,163.204 				"/>
				<polygon fill="#433432" points="275.015,182.51 278.446,163.204 181.06,186.371 				"/>
			</g>
			<g>
				<polygon fill="#CE88B1" points="274.729,183.94 201.796,193.664 199.222,233.706 				"/>
				<polygon fill="#AF759A" points="229.753,257.445 274.729,183.94 199.222,233.706 				"/>
				<polygon fill="#E7A4C9" points="201.796,193.664 221.245,204.247 274.729,183.94 				"/>
				<polygon fill="#433432" points="201.796,193.664 199.222,233.706 229.753,257.445 				"/>
			</g>
		</g>
		<g id="asa_x5F_1">
			<g>
				<polygon fill="#483C38" points="468.154,139.863 359.597,255.123 292.587,189.155 303.011,172.548 395.774,137.939 				"/>
				<polygon fill="#483C38" points="468.154,139.863 404.911,194.289 359.597,255.123 				"/>
				<polygon fill="#5C9E91" points="468.154,139.863 399.559,140.791 404.911,194.289 				"/>
				<polygon fill="#72C9BB" points="303.011,172.548 404.911,194.289 399.559,140.791 				"/>
				<polygon fill="#555047" points="359.597,255.123 404.911,194.289 303.011,172.548 				"/>
				<polygon fill="#433432" points="292.587,189.155 303.011,172.548 359.597,255.123 				"/>
			</g>
			<g>
				<polygon fill="#CE88B1" points="291.838,190.406 339.338,246.598 314.35,277.99 				"/>
				<polygon fill="#AF759A" points="275.783,275.07 291.838,190.406 314.35,277.99 				"/>
				<polygon fill="#E7A4C9" points="339.338,246.598 317.82,241.375 291.838,190.406 				"/>
				<polygon fill="#433432" points="339.338,246.598 275.783,275.07 314.35,277.99 				"/>
			</g>
		</g>
	</g>
</g>
<g id="side">
	<g id="borboleta_x5F_side">
		<g id="asa_x5F_b">
			<polygon fill="#483C38" points="86.548,276.885 87.379,399.566 274.827,432.323 276.153,432.631 193.515,335.508 			"/>
			<polygon fill="#483C38" points="86.548,276.885 97.615,361.388 87.379,399.566 			"/>
			<polygon fill="#5C9E91" points="86.548,276.885 183.881,334.074 97.615,361.388 			"/>
			<polygon fill="#72C9BB" points="276.153,432.631 89.189,387.034 97.615,361.388 183.881,334.074 			"/>
			<polygon fill="#555047" points="87.379,399.566 97.615,361.388 276.153,432.631 			"/>
		</g>
		<g id="asa_x5F_a">
			<polygon fill="#483C38" points="52.417,310.979 83.036,431.13 274.779,433.367 276.154,433.458 151,343 			"/>
			<polygon fill="#483C38" points="52.417,310.979 83.796,392.068 83.036,431.13 			"/>
			<polygon fill="#E7A4C9" points="52.417,310.979 146.539,345.897 83.796,392.068 			"/>
			<polygon fill="#AF759A" points="276.154,433.458 81.766,418.556 83.796,392.068 146.539,345.897 			"/>
			<polygon fill="#555047" points="83.036,431.13 83.796,392.068 276.154,433.458 			"/>
			<polyline fill="#433432" points="276.154,433.458 274.779,433.367 83.036,412.764 83.036,431.13 			"/>
		</g>
	</g>
</g>
</svg>
