<?xml version="1.0" encoding="utf-8"?>
<!-- Generator: Adobe Illustrator 16.0.0, SVG Export Plug-In . SVG Version: 6.00 Build 0)  -->
<!DOCTYPE svg PUBLIC "-//W3C//DTD SVG 1.1//EN" "http://www.w3.org/Graphics/SVG/1.1/DTD/svg11.dtd">
<svg version="1.1" id="Layer_1" xmlns="http://www.w3.org/2000/svg" xmlns:xlink="http://www.w3.org/1999/xlink" x="0px" y="0px"
	 width="500px" height="500px" viewBox="0 0 500 500" enable-background="new 0 0 500 500" xml:space="preserve">
<g id="borboleta_svg">
	<g>
		<polygon points="402,253 212,77 42,52 91,193 		"/>
		<polygon points="119,253 91,193 402,253 		"/>
		<polygon fill="#D47328" points="402,253 119,253 119,346 212,403 		"/>
		<polygon fill="#D47328" points="42,52 210,86 402,253 97,185 		"/>
		<polygon fill="#F7A129" points="42,52 402,253 210,86 		"/>
		<polygon points="119,253 212,403 119,346 		"/>
		<polygon fill="#F7A129" points="119,253 402,253 165.5,328 		"/>
	</g>
	<g>
		<polyline points="401.262,256.584 401.262,256.584 417.649,230.333 417.41,245.259 		"/>
		<polygon points="404.172,253 365.164,324.614 347.429,313.225 		"/>
		<polygon points="417.497,240.832 416.174,237.5 448.18,203.934 		"/>
		<polygon points="413.164,237.982 409.455,238.27 415.392,192.272 		"/>
		<polygon fill="#58595B" points="404,254.895 356.834,319.068 365.164,324.614 		"/>
		<polyline fill="#58595B" points="402,256.584 402,256.584 417.649,230.333 406.443,237.366 		"/>
	</g>
	<g>
		<polygon points="401.025,252.434 191.572,100.1 19.81,95.349 85.116,229.576 		"/>
		<polygon points="120.006,285.85 85.116,229.576 401.025,252.434 		"/>
		<polygon fill="#D47328" points="401.025,252.434 120.006,285.85 130.987,378.199 230.068,423.819 		"/>
		<polygon fill="#D47328" points="19.81,95.349 190.649,109.273 401.025,252.434 90.13,220.924 		"/>
		<polygon fill="#F7A129" points="19.81,95.349 401.025,252.434 190.649,109.273 		"/>
		<polygon points="120.006,285.85 230.068,423.819 130.987,378.199 		"/>
		<polygon fill="#F7A129" points="120.006,285.85 401.025,252.434 175.037,354.835 		"/>
	</g>
	<ellipse fill="#D6D6D6" cx="267.584" cy="467.128" rx="122.441" ry="9.343"/>
</g>
</svg>
